<svg width="342" height="512" viewBox="0 0 342 512" fill="none" xmlns="http://www.w3.org/2000/svg">
<path d="M171 405.333C153.315 405.333 139 390.997 139 373.333C139 331.989 167.843 294.208 222.392 264.149C263.032 241.749 284.067 197.355 275.939 151.061C268.429 108.331 233.336 73.2373 190.605 65.728C159.779 60.3093 129.485 67.6907 105.251 86.5067C81.464 105.003 66.5093 132.672 64.248 162.432C62.904 180.032 47.5013 193.259 29.9227 191.915C12.3013 190.571 -0.904007 175.211 0.439993 157.589C4.06666 109.867 27.96 65.536 65.9973 35.9893C104.653 5.93067 152.845 -5.86666 201.656 2.68801C270.435 14.7627 326.904 71.232 338.979 140.011C351.715 212.523 317.261 284.949 253.283 320.213C221.795 337.557 203 357.419 203 373.333C203 390.997 188.685 405.333 171 405.333ZM139 480C139 497.664 153.336 512 171 512C188.664 512 203 497.664 203 480C203 462.336 188.664 448 171 448C153.336 448 139 462.336 139 480Z" fill="white"/>
</svg>
