<svg width="508" height="512" viewBox="0 0 508 512" fill="none" xmlns="http://www.w3.org/2000/svg">
<path d="M63.3893 227.927C78.8378 122.945 176.465 50.3644 281.447 65.8129C317.265 71.0833 350.864 86.3664 378.375 109.901L353.61 134.667C345.309 142.97 345.311 156.43 353.615 164.731C357.6 168.715 363.004 170.954 368.64 170.955H466.131C477.871 170.955 487.389 161.438 487.389 149.697V52.2059C487.386 40.4653 477.866 30.9498 466.126 30.9518C460.491 30.9528 455.086 33.1919 451.101 37.1759L423.463 64.8114C318.075 -29.1322 156.484 -19.855 62.5403 85.5333C29.2587 122.869 7.66089 169.147 0.422423 218.637C-2.43151 236.182 9.47748 252.719 27.0216 255.573C28.602 255.83 30.1984 255.968 31.7997 255.988C47.8511 255.815 61.3246 243.846 63.3893 227.927Z" fill="white"/>
<path d="M475.291 255.988C459.24 256.161 445.766 268.13 443.702 284.049C428.253 389.031 330.626 461.612 225.644 446.164C189.826 440.894 156.227 425.611 128.716 402.076L153.482 377.31C161.782 369.007 161.78 355.547 153.477 347.246C149.492 343.262 144.087 341.023 138.452 341.022H40.9624C29.2218 341.022 19.7044 350.54 19.7044 362.28V459.771C19.7074 471.512 29.2268 481.027 40.9674 481.025C46.6025 481.024 52.0075 478.785 55.9924 474.801L83.6279 447.166C188.991 541.119 350.57 531.871 444.525 426.507C477.824 389.163 499.432 342.869 506.669 293.361C509.535 275.818 497.637 259.273 480.094 256.408C478.506 256.147 476.901 256.007 475.291 255.988Z" fill="white"/>
</svg>
